<svg width="725" height="100" viewBox="0 0 725 100" fill="none" xmlns="http://www.w3.org/2000/svg">
<path fill-rule="evenodd" clip-rule="evenodd" d="M26.5442 -0.0030899H73.8501C76.8637 -0.0030899 79.3115 2.44621 79.3115 5.46017V22.7155C79.3115 24.1676 78.7387 25.5567 77.7111 26.5766L42.7553 61.5374C40.6208 63.6718 37.1689 63.6718 35.0344 61.5374L22.5582 49.0592C20.4241 46.9249 16.9718 46.9249 14.8377 49.0592L12.4598 51.4374C10.3254 53.5721 10.3254 57.0245 12.4598 59.1593L35.0344 81.7524C37.1689 83.8868 40.6286 83.8868 42.7553 81.7524L72.5244 51.9782C75.0273 49.4746 79.3115 51.249 79.3115 54.7882V93.7196C79.3115 96.7327 76.8637 99.1816 73.8501 99.1816H5.46138C2.44781 99.1816 0 96.7327 0 93.7196V26.5692C0 25.9741 0.0972874 25.3895 0.283657 24.8346L16.1544 23.0766C19.9689 23.0766 23.0677 19.9774 23.0677 16.1624L24.8255 0.278252C25.3779 0.0945892 25.9605 -0.0030899 26.5532 -0.0030899H26.5442Z" fill="#005EFF"/>
<path fill-rule="evenodd" clip-rule="evenodd" d="M0.00683594 26.5387V46.3164L23.1632 23.157V15.4277L23.0835 16.1475C23.0835 19.9625 19.9844 23.0617 16.169 23.0617L0.288149 24.8197C0.103342 25.3723 0.00683594 25.9549 0.00683594 26.5477V26.5387Z" fill="#005EFF"/>
<path fill-rule="evenodd" clip-rule="evenodd" d="M0.283691 24.834C0.549376 24.0419 0.995569 23.312 1.60039 22.7082L12.3137 11.9849L22.8684 1.42961C23.4377 0.907938 24.1066 0.517948 24.8255 0.27763V19.1335C24.8255 22.2784 22.2714 24.834 19.1258 24.834H0.283691Z" fill="#A7F46B"/>
<path fill-rule="evenodd" clip-rule="evenodd" d="M393.349 88.6289H381.224V10.5774H393.349V88.6289Z" fill="#0F0B3D"/>
<path d="M126.933 88.6289V21.8216H104.335V10.5774H162.756V21.8216H140.159V88.6289H126.933Z" fill="#0F0B3D"/>
<path d="M166.468 88.6289V32.4055H178.373V39.2407H178.814C181.459 34.2429 186.198 31.7439 193.034 31.7439C199.059 31.7439 204.167 34.0955 208.354 38.7999L200.86 46.2956C199.668 45.2256 197.346 41.9956 189.948 41.9956C182.378 41.9956 178.594 46.4796 178.594 55.4472V88.6289H166.468Z" fill="#0F0B3D"/>
<path d="M231.8 88.6289C225.847 88.6289 220.96 86.8841 217.138 83.3915C213.317 79.9024 211.407 75.3996 211.407 69.8891C211.407 65.1839 212.913 61.4177 215.925 58.5874C218.939 55.7575 222.979 54.3429 228.052 54.3429H248.113V49.7128C248.113 46.9192 247.341 44.7348 245.798 43.1554C244.254 41.5736 242.087 40.7838 239.294 40.7838H233.232C228.96 40.7838 225.056 42.3258 221.547 45.0815L214.602 38.1376C218.793 33.4344 224.267 31.0827 231.027 31.0827H241.938C247.304 31.0827 251.695 32.7365 255.113 36.0443C258.53 39.3517 260.237 43.6138 260.237 48.8324V87.9673H248.334V81.0223H247.893C244.586 86.0921 239.22 88.6289 231.8 88.6289ZM234.335 79.0364C238.377 79.0364 241.682 77.7524 244.254 75.1792C246.827 72.6072 248.113 69.374 248.113 65.4785V63.2742H230.034C225.919 63.2742 223.862 65.3687 223.862 69.5557C223.862 72.4236 224.799 74.7197 226.674 76.4465C228.547 78.1744 231.1 79.0364 234.335 79.0364Z" fill="#0F0B3D"/>
<path d="M284.122 88.6289L265.299 32.4055H277.949C282.747 47.4444 287.795 62.4188 291.727 77.7161H292.168C296.173 62.336 301.058 47.5054 305.947 32.4055H318.713L299.775 88.6289H284.122Z" fill="#0F0B3D"/>
<path d="M343.5 88.6289C337.621 88.6289 332.732 86.7005 328.838 82.8421C324.944 78.9833 322.997 74.1515 322.997 68.3452V51.3665C322.997 45.5601 324.944 40.7284 328.838 36.8703C332.732 33.0112 337.621 31.0827 343.5 31.0827H351.767C357.646 31.0827 362.513 33.0112 366.37 36.8703C370.23 40.7284 372.158 45.5601 372.158 51.3665V63.1644H335.122V67.6836C335.122 71.0633 336.023 73.7838 337.822 75.8408C339.621 77.8997 341.992 78.9266 344.932 78.9266H352.095C355.624 78.9266 362.005 77.6106 364.223 74.629L371.168 81.5729C366.978 86.2785 361.503 88.6289 354.742 88.6289H343.5ZM335.122 54.2331H360.034V52.0277C360.034 48.6472 359.134 45.929 357.334 43.8709C355.531 41.8119 353.199 40.7838 350.333 40.7838H344.932C341.992 40.7838 339.621 41.8119 337.822 43.8709C336.023 45.929 335.122 48.6472 335.122 52.0277V54.2331Z" fill="#0F0B3D"/>
<path d="M404.783 88.6289V10.5774H435.206C441.966 10.5774 447.404 12.4695 451.519 16.2544C455.635 20.0406 457.693 25.056 457.693 31.3031V38.1388C457.693 44.3847 455.616 49.4193 451.464 53.2418C447.312 57.0623 441.893 58.9743 435.206 58.9743H418.01V88.6289H404.783ZM418.01 47.9504H433.442C437.043 47.9504 439.78 46.9935 441.655 45.0838C443.527 43.173 444.464 40.4173 444.464 36.8149V32.7365C444.464 29.1344 443.527 26.3783 441.655 24.4679C439.78 22.5582 437.043 21.6013 433.442 21.6013H418.01V47.9504Z" fill="#0F0B3D"/>
<path d="M466.757 88.6289V32.4055H478.662V39.2407H479.101C481.747 34.2429 486.487 31.7439 493.32 31.7439C499.347 31.7439 504.455 34.0955 508.643 38.7999L501.148 46.2956C498.937 43.2163 493.823 41.9956 490.234 41.9956C482.665 41.9956 478.882 46.4796 478.882 55.4472V88.6289H466.757Z" fill="#0F0B3D"/>
<path d="M533.623 88.6289C527.743 88.6289 522.857 86.6813 518.961 82.787C515.066 78.8911 513.119 74.003 513.119 68.1248V51.5881C513.119 45.7086 515.066 40.8206 518.961 36.9258C522.857 33.0299 527.743 31.0827 533.623 31.0827H543.873C549.825 31.0827 554.73 33.0299 558.589 36.9258C562.447 40.8206 564.376 45.7086 564.376 51.5881V68.1248C564.376 74.003 562.447 78.8911 558.589 82.787C554.73 86.6813 549.825 88.6289 543.873 88.6289H533.623ZM535.055 78.3761H542.44C545.379 78.3761 547.75 77.3292 549.55 75.2347C551.351 73.1402 552.251 70.4029 552.251 67.0213V52.6904C552.251 49.3095 551.351 46.5714 549.55 44.4769C547.75 42.3821 545.379 41.3344 542.44 41.3344H535.055C532.116 41.3344 529.746 42.3821 527.946 44.4769C526.145 46.5714 525.244 49.3095 525.244 52.6904V67.0213C525.244 70.4029 526.145 73.1402 527.946 75.2347C529.746 77.3292 532.116 78.3761 535.055 78.3761Z" fill="#0F0B3D"/>
<path d="M593.52 88.6289C587.642 88.6289 582.754 86.6813 578.86 82.787C574.965 78.8911 573.018 74.003 573.018 68.1248V51.5881C573.018 45.7086 574.965 40.8206 578.86 36.9258C582.754 33.0299 587.642 31.0827 593.52 31.0827H603.772C609.723 31.0827 614.629 33.0299 618.487 36.9258C622.345 40.8206 624.274 45.7086 624.274 51.5881V68.1248C624.274 74.003 622.345 78.8911 618.487 82.787C614.629 86.6813 609.723 88.6289 603.772 88.6289H593.52ZM594.953 78.3761H602.339C605.278 78.3761 607.648 77.3292 609.449 75.2347C611.25 73.1402 612.149 70.4029 612.149 67.0213V52.6904C612.149 49.3095 611.25 46.5714 609.449 44.4769C607.648 42.3821 605.278 41.3344 602.339 41.3344H594.953C592.013 41.3344 589.644 42.3821 587.844 44.4769C586.044 46.5714 585.143 49.3095 585.143 52.6904V67.0213C585.143 70.4029 586.044 73.1402 587.844 75.2347C589.644 77.3292 592.013 78.3761 594.953 78.3761Z" fill="#0F0B3D"/>
<path d="M654.777 25.1678V30.5787V32.4055V33.5563V45.9888V88.6289H642.651V42.6591H632.511V32.4055H642.651V25.1678C642.651 20.9053 643.995 17.4306 646.675 14.7488C649.735 11.6895 654.494 10.3461 659.188 10.581H669.878V20.6474H659.188C656.246 20.6474 654.777 22.1573 654.777 25.1678Z" fill="#0F0B3D"/>
<path d="M657.87 32.4057H669.878V42.6582L657.87 32.4057Z" fill="#0F0B3D"/>
<path d="M694.535 88.6289C687.775 88.6289 682.3 86.2785 678.11 81.5729L685.056 74.629C687.211 77.6297 693.244 78.9266 696.738 78.9266H704.345C709.489 78.9266 712.061 76.6868 712.061 72.2043C712.061 68.748 710.369 66.6915 706.991 66.0287L692.991 62.9429C683.438 60.8859 678.663 55.6301 678.663 47.1783C678.663 42.2539 680.26 38.3404 683.456 35.4359C686.654 32.534 690.971 31.0827 696.41 31.0827H706.991C713.752 31.0827 719.225 33.4344 723.415 38.1376L716.36 45.0815C714.255 42.0433 708.376 40.7838 704.896 40.7838H698.504C693.359 40.7838 690.787 42.9526 690.787 47.2881C690.787 50.7428 692.55 52.8729 696.079 53.6818L710.077 56.659C719.483 58.6429 724.186 63.8612 724.186 72.3138C724.186 77.3104 722.605 81.2806 719.447 84.2191C716.286 87.1589 712.024 88.6289 706.66 88.6289H694.535Z" fill="#0F0B3D"/>
</svg>
